*
G04 Mass Parameters ***
*
G04 Image ***
*
%INSGPSUI_AST.GBR*%
%ICAS*%
%MOIN*%
%IPPOS*%
%ASAXBY*%
G74*%FSLAN2X34Y34*%
*
G04 Aperture Definitions ***
*
%ADD10C,0.0787*%
%ADD11R,0.0320X0.0380*%
%ADD12R,0.0452X0.0295*%
%ADD13O,0.0400X0.0079*%
%ADD14R,0.0400X0.0079*%
%ADD15C,0.0295*%
%ADD16C,0.0413*%
%ADD17C,0.0020*%
%ADD18C,0.0236*%
%ADD19C,0.0079*%
%ADD20C,0.0236*%
%ADD21C,0.0063*%
%ADD22C,0.0236*%
%ADD23C,0.0098*%
%ADD24C,0.0708*%
%ADD25R,0.0380X0.0320*%
%ADD26R,0.0320X0.0380*%
%ADD27R,0.0500X0.0500*%
%ADD28R,0.0709X0.0433*%
%ADD29R,0.0433X0.0709*%
%ADD30O,0.0250X0.0860*%
%ADD31R,0.0250X0.0860*%
%ADD32R,0.0457X0.1299*%
%ADD33R,0.0400X0.0340*%
%ADD34R,0.0500X0.0340*%
%ADD35R,0.0708X0.0800*%
%ADD36O,0.0700X0.0110*%
%ADD37R,0.0700X0.0110*%
%ADD38O,0.0110X0.0700*%
%ADD39R,0.0110X0.0700*%
%ADD40R,0.0420X0.0250*%
%ADD41O,0.0940X0.0250*%
%ADD42R,0.0940X0.0250*%
%ADD43R,0.0748X0.0551*%
%ADD44R,0.0551X0.0708*%
%ADD45R,0.0551X0.0630*%
%ADD46R,0.0394X0.0394*%
%ADD47R,0.0590X0.0315*%
%ADD48R,0.0512X0.0118*%
%ADD49R,0.1024X0.0787*%
%ADD50C,0.0295*%
%ADD51C,0.0413*%
%ADD52R,0.0276X0.1063*%
%ADD53C,0.0236*%
%ADD54C,0.0748*%
%ADD55R,0.0452X0.0295*%
%ADD56O,0.0400X0.0079*%
%ADD57R,0.0400X0.0079*%
%ADD58R,0.0512X0.0098*%
%ADD59R,0.1043X0.0807*%
%ADD60R,0.0450X0.0300*%
%ADD61C,0.0039*%
%ADD62C,0.0010*%
%ADD63C,0.0016*%
%ADD64C,0.0004*%
%ADD65C,0.0008*%
%ADD66C,0.0080*%
*
G04 Plot Data ***
*
G54D17*
G01X0012651Y0006250D02*
X0012520D01*
X0012586D02*
Y0006644D01*
X0012520Y0006579D01*
X0012218Y0006250D02*
X0012153Y0006316D01*
X0012120Y0006382D01*
Y0006513D01*
X0012153Y0006579D01*
X0012218Y0006644D01*
X0012284D01*
X0012350Y0006579D01*
X0012382Y0006513D01*
Y0006382D01*
X0012350Y0006316D01*
X0012284Y0006250D01*
X0012218D01*
X0012015Y0006447D02*
X0011818D01*
X0011785Y0006513D01*
Y0006579D01*
X0011818Y0006644D01*
X0012015D01*
X0012048Y0006579D01*
Y0006513D01*
X0011917Y0006250D01*
X0011713D02*
X0011516Y0006644D01*
X0011713D02*
X0011516Y0006250D01*
X0013449Y0005595D02*
X0013416Y0005529D01*
X0013219D01*
X0013186Y0005595D01*
Y0005857D01*
X0013219Y0005923D01*
X0013416D01*
X0013449Y0005857D01*
X0013114Y0005529D02*
X0012983D01*
X0013048D02*
Y0005923D01*
X0013114D02*
X0012983D01*
X0012714Y0005529D02*
Y0005923D01*
X0012845D02*
X0012583D01*
X0012511Y0005857D02*
X0012478Y0005923D01*
X0012281D01*
X0012248Y0005857D01*
Y0005792D01*
X0012281Y0005726D01*
X0012478D01*
X0012511Y0005660D01*
Y0005595D01*
X0012478Y0005529D01*
X0012281D01*
X0012248Y0005595D01*
X0012045Y0005529D02*
Y0005726D01*
X0012176Y0005923D02*
X0012078Y0005726D01*
X0012012D01*
X0011914Y0005923D01*
X0011612Y0005529D02*
X0011579Y0005595D01*
Y0005857D01*
X0011612Y0005923D01*
X0011809D01*
X0011841Y0005857D01*
Y0005595D01*
X0011809Y0005529D01*
X0011612D01*
X0011277Y0005660D02*
Y0005595D01*
X0011310Y0005529D01*
X0011441D01*
X0011474Y0005595D01*
Y0005923D01*
X0011507D02*
X0011376D01*
X0011614Y0007973D02*
Y0008252D01*
X0011503Y0008140D01*
X0011614Y0008252D02*
X0011726Y0008140D01*
G54D61*
G01X0014948Y0012940D02*
X0014895Y0012887D01*
X0014843Y0012861D01*
X0014738D01*
X0014685Y0012887D01*
X0014633Y0012940D01*
Y0012992D01*
X0014685Y0013045D01*
X0014738Y0013071D01*
X0014843D01*
X0014895Y0013045D01*
X0014948Y0012992D01*
Y0012940D01*
Y0012625D02*
X0014895Y0012572D01*
X0014843Y0012546D01*
X0014738D01*
X0014685Y0012572D01*
X0014633Y0012625D01*
Y0012677D01*
X0014685Y0012730D01*
X0014738Y0012756D01*
X0014843D01*
X0014895Y0012730D01*
X0014948Y0012677D01*
Y0012625D01*
Y0012310D02*
X0014895Y0012257D01*
X0014843Y0012231D01*
X0014738D01*
X0014685Y0012257D01*
X0014633Y0012310D01*
Y0012362D01*
X0014685Y0012415D01*
X0014738Y0012441D01*
X0014843D01*
X0014895Y0012415D01*
X0014948Y0012362D01*
Y0012310D01*
Y0012073D02*
Y0012126D01*
X0014895D01*
Y0012073D01*
X0014948D01*
X0014843Y0011916D02*
Y0011706D01*
X0014633Y0011811D01*
Y0011864D01*
X0014948D01*
Y0011601D02*
Y0011496D01*
Y0011549D02*
X0014633D01*
X0014685Y0011496D01*
X0014948Y0008136D02*
X0014895Y0008084D01*
X0014843Y0008058D01*
X0014738D01*
X0014685Y0008084D01*
X0014633Y0008136D01*
Y0008189D01*
X0014685Y0008241D01*
X0014738Y0008268D01*
X0014843D01*
X0014895Y0008241D01*
X0014948Y0008189D01*
Y0008136D01*
Y0007822D02*
X0014895Y0007769D01*
X0014843Y0007743D01*
X0014738D01*
X0014685Y0007769D01*
X0014633Y0007822D01*
Y0007874D01*
X0014685Y0007927D01*
X0014738Y0007953D01*
X0014843D01*
X0014895Y0007927D01*
X0014948Y0007874D01*
Y0007822D01*
X0014790Y0007454D02*
Y0007612D01*
X0014843Y0007638D01*
X0014895D01*
X0014948Y0007612D01*
Y0007454D01*
X0014895Y0007428D01*
X0014843D01*
X0014633Y0007533D01*
X0014948Y0007270D02*
Y0007323D01*
X0014895D01*
Y0007270D01*
X0014948D01*
X0014790Y0007087D02*
Y0006929D01*
X0014738Y0006903D01*
X0014685D01*
X0014633Y0006929D01*
Y0007087D01*
X0014685Y0007113D01*
X0014738D01*
X0014948Y0007008D01*
Y0003570D02*
X0014895Y0003517D01*
X0014843Y0003491D01*
X0014738D01*
X0014685Y0003517D01*
X0014633Y0003570D01*
Y0003622D01*
X0014685Y0003675D01*
X0014738Y0003701D01*
X0014843D01*
X0014895Y0003675D01*
X0014948Y0003622D01*
Y0003570D01*
Y0003255D02*
X0014895Y0003202D01*
X0014843Y0003176D01*
X0014738D01*
X0014685Y0003202D01*
X0014633Y0003255D01*
Y0003307D01*
X0014685Y0003360D01*
X0014738Y0003386D01*
X0014843D01*
X0014895Y0003360D01*
X0014948Y0003307D01*
Y0003255D01*
X0014843Y0003071D02*
Y0002861D01*
X0014633Y0002966D01*
Y0003018D01*
X0014948D01*
Y0002703D02*
Y0002756D01*
X0014895D01*
Y0002703D01*
X0014948D01*
X0014843Y0002546D02*
Y0002336D01*
X0014633Y0002441D01*
Y0002493D01*
X0014948D01*
Y0002231D02*
Y0002126D01*
Y0002178D02*
X0014633D01*
X0014685Y0002126D01*
X0007625Y-0001168D02*
X0007572Y-0001115D01*
X0007546Y-0001063D01*
Y-0000958D01*
X0007572Y-0000906D01*
X0007625Y-0000853D01*
X0007677D01*
X0007730Y-0000906D01*
X0007756Y-0000958D01*
Y-0001063D01*
X0007730Y-0001115D01*
X0007677Y-0001168D01*
X0007625D01*
X0007310D02*
X0007257Y-0001115D01*
X0007231Y-0001063D01*
Y-0000958D01*
X0007257Y-0000906D01*
X0007310Y-0000853D01*
X0007362D01*
X0007415Y-0000906D01*
X0007441Y-0000958D01*
Y-0001063D01*
X0007415Y-0001115D01*
X0007362Y-0001168D01*
X0007310D01*
X0006995D02*
X0006942Y-0001115D01*
X0006916Y-0001063D01*
Y-0000958D01*
X0006942Y-0000906D01*
X0006995Y-0000853D01*
X0007047D01*
X0007100Y-0000906D01*
X0007126Y-0000958D01*
Y-0001063D01*
X0007100Y-0001115D01*
X0007047Y-0001168D01*
X0006995D01*
X0006759D02*
X0006811D01*
Y-0001115D01*
X0006759D01*
Y-0001168D01*
X0006391Y-0001115D02*
X0006417Y-0001168D01*
X0006575D01*
X0006601Y-0001115D01*
Y-0001010D01*
X0006549Y-0000958D01*
X0006391D01*
Y-0000853D01*
X0006601D01*
X0006076Y-0001115D02*
X0006129Y-0001168D01*
X0006234D01*
X0006286Y-0001115D01*
Y-0001063D01*
X0006181Y-0000958D01*
X0006286Y-0000853D01*
X0006076D01*
X-0000801Y0009003D02*
X-0000853Y0008950D01*
X-0000906Y0008924D01*
X-0001010D01*
X-0001063Y0008950D01*
X-0001115Y0009003D01*
Y0009055D01*
X-0001063Y0009108D01*
X-0001010Y0009134D01*
X-0000906D01*
X-0000853Y0009108D01*
X-0000801Y0009055D01*
Y0009003D01*
Y0008688D02*
X-0000853Y0008635D01*
X-0000906Y0008609D01*
X-0001010D01*
X-0001063Y0008635D01*
X-0001115Y0008688D01*
Y0008740D01*
X-0001063Y0008793D01*
X-0001010Y0008819D01*
X-0000906D01*
X-0000853Y0008793D01*
X-0000801Y0008740D01*
Y0008688D01*
Y0008373D02*
X-0000853Y0008320D01*
X-0000906Y0008294D01*
X-0001010D01*
X-0001063Y0008320D01*
X-0001115Y0008373D01*
Y0008425D01*
X-0001063Y0008478D01*
X-0001010Y0008504D01*
X-0000906D01*
X-0000853Y0008478D01*
X-0000801Y0008425D01*
Y0008373D01*
Y0008136D02*
Y0008189D01*
X-0000853D01*
Y0008136D01*
X-0000801D01*
Y0007979D02*
Y0007769D01*
X-0001010Y0007979D01*
X-0001063D01*
X-0001115Y0007953D01*
Y0007795D01*
X-0001063Y0007769D01*
X-0000906Y0007664D02*
Y0007454D01*
X-0001115Y0007559D01*
Y0007612D01*
X-0000801D01*
X0015052Y0017021D02*
Y0017178D01*
X0015157Y0017021D02*
Y0017178D01*
X0015131Y0017231D01*
X0015079D01*
X0015052Y0017178D01*
X0015026Y0017231D01*
X0014974D01*
X0014948Y0017178D01*
Y0017021D01*
X0014738D02*
Y0017178D01*
X0014843Y0017021D02*
Y0017178D01*
X0014816Y0017231D01*
X0014764D01*
X0014738Y0017178D01*
X0014711Y0017231D01*
X0014659D01*
X0014633Y0017178D01*
Y0017021D01*
X0014528D02*
X0014318D01*
X0014528Y0017231D01*
Y0017283D01*
X0014501Y0017336D01*
X0014344D01*
X0014318Y0017283D01*
X0015472Y0009449D02*
X0014055D01*
X0014764Y0008596D02*
Y0009449D01*
X0014646Y0009094D02*
X0014764Y0009449D01*
X0014882Y0009094D01*
X0015472Y0005669D02*
X0014055D01*
X0014764Y0006522D02*
Y0005669D01*
X0015472D02*
X0014055D01*
X0014764Y0003976D02*
Y0005669D01*
X0014646Y0005315D02*
X0014764Y0005669D01*
X0014882Y0005315D01*
X0015472Y0000000D02*
X0014055D01*
X0014764Y0001693D02*
Y0000000D01*
X0014882Y0000354D02*
X0014764Y0000000D01*
X0014646Y0000354D01*
X0014882Y0009803D02*
X0014764Y0009449D01*
X0014646Y0009803D01*
X0015472Y0014961D02*
X0014055D01*
X0014764Y0013346D02*
Y0014961D01*
X0014646Y0014606D02*
X0014764Y0014961D01*
X0014882Y0014606D01*
X0015472Y0009449D02*
X0014055D01*
X0014764Y0011063D02*
Y0009449D01*
X0013780Y-0001693D02*
Y-0000276D01*
X0008084Y-0000984D02*
X0013780D01*
X0013425Y-0000866D02*
X0013780Y-0000984D01*
X0013425Y-0001102D01*
X0000000Y-0001693D02*
Y-0000276D01*
X0005696Y-0000984D02*
X0000000D01*
X0000354Y-0001102D02*
X0000000Y-0000984D01*
X0000354Y-0000866D01*
X-0000276Y0016535D02*
X-0001693D01*
X-0000984Y0009462D02*
Y0016535D01*
X-0001102Y0016181D02*
X-0000984Y0016535D01*
X-0000866Y0016181D01*
X-0000276Y0000000D02*
X-0001693D01*
X-0000984Y0007073D02*
Y0000000D01*
X-0000866Y0000354D02*
X-0000984Y0000000D01*
X-0001102Y0000354D01*
X0014882Y0006024D02*
X0014764Y0005669D01*
X0014646Y0006024D01*
G54D62*
G01X0000000Y0000000D02*
Y0016535D01*
X0013780D01*
Y0000000D01*
X0000000D01*
X0011614Y0004911D02*
X0013396Y0006693D01*
X0011614Y0008475D01*
X0009832Y0006693D01*
X0011614Y0004911D01*
X0012205Y0002323D02*
Y0002520D01*
X0012126Y0002441D02*
X0012283D01*
G01X0000787Y0000392D02*
G03X0001182Y0000787I0000000J0000395D01*
G01X0000392D02*
G03X0000787Y0000392I0000395J0000000D01*
Y0001183D02*
G03X0000391Y0000787I0000000J0000396D01*
G01X0001183D02*
G03X0000787Y0001183I0000396J0000000D01*
G01X0012992Y0015352D02*
G03X0013388Y0015748I0000000J0000396D01*
G01X0012596D02*
G03X0012992Y0015352I0000396J0000000D01*
Y0016144D02*
G03X0012596Y0015748I0000000J0000396D01*
G01X0013388D02*
G03X0012992Y0016144I0000396J0000000D01*
G54D63*
G01X0010866Y0004213D02*
Y0000591D01*
X0013543D01*
Y0004213D01*
X0010866D01*
Y0003779D02*
X0011299Y0004213D01*
G54D64*
G01X0000000Y0000000D02*
Y0016535D01*
X0013780D01*
Y0000000D01*
X0000000D01*
X0012598Y0015354D02*
X0014134Y0016890D01*
X0015315D01*
G54D65*
G01X0010244Y0001783D02*
X0010152D01*
Y0001691D02*
Y0001875D01*
X0010274D01*
X0010105Y0001814D02*
Y0001691D01*
X0010121D02*
X0010014D01*
X0009998Y0001722D01*
Y0001814D01*
X0009967Y0001691D02*
X0009906D01*
X0009937D02*
Y0001875D01*
X0009906Y0001845D01*
X0010438Y0001990D02*
X0010473Y0001955D01*
X0010543D01*
X0010578Y0001990D01*
Y0002025D01*
X0010508Y0002095D01*
X0010578Y0002165D01*
X0010438D01*
X0010317Y0001955D02*
X0010282Y0001990D01*
X0010264Y0002025D01*
Y0002095D01*
X0010282Y0002130D01*
X0010317Y0002165D01*
X0010352D01*
X0010387Y0002130D01*
X0010404Y0002095D01*
Y0002025D01*
X0010387Y0001990D01*
X0010352Y0001955D01*
X0010317D01*
X0010231Y0002025D02*
X0010091D01*
X0010161Y0002165D01*
X0010196D01*
Y0001955D01*
X0010058Y0001990D02*
X0010040Y0001955D01*
X0009935D01*
X0009918Y0001990D01*
Y0002130D01*
X0009935Y0002165D01*
X0010040D01*
X0010058Y0002130D01*
X0009823Y0001654D02*
X0010787D01*
Y0002205D01*
X0009823D01*
Y0001654D01*
G54D66*
G01X0012103Y0001833D02*
Y0001945D01*
Y0001889D02*
X0012436D01*
X0012380Y0001945D01*
X0012103Y0002327D02*
X0012158Y0002382D01*
X0012214Y0002410D01*
X0012325D01*
X0012380Y0002382D01*
X0012436Y0002327D01*
Y0002271D01*
X0012380Y0002216D01*
X0012325Y0002188D01*
X0012214D01*
X0012158Y0002216D01*
X0012103Y0002271D01*
Y0002327D01*
X0012214Y0002598D02*
Y0002820D01*
X0012436Y0002709D01*
Y0002653D01*
X0012103D01*
Y0003008D02*
X0012436Y0003175D01*
Y0003008D02*
X0012103Y0003175D01*
G54D56*
X0011181Y0003150D03*
Y0002992D03*
Y0002835D03*
Y0002677D03*
Y0002520D03*
Y0002362D03*
Y0002205D03*
Y0002047D03*
Y0001890D03*
Y0001732D03*
Y0001575D03*
X0013226D03*
Y0001732D03*
Y0001890D03*
Y0002047D03*
Y0002205D03*
Y0002362D03*
Y0002520D03*
Y0002677D03*
Y0002835D03*
Y0002992D03*
Y0003150D03*
Y0003307D03*
G54D57*
X0011181D03*
G54D60*
X0011515Y0003995D03*
X0012892D03*
Y0000869D03*
X0011515D03*
M02*
